<svg xmlns="http://www.w3.org/2000/svg" height="512pt" version="1.1" viewBox="-22 0 512 512.00002" width="512pt">
<g id="surface1">
<path d="M 138.847656 216.949219 L 104.136719 216.949219 L 104.136719 242.984375 L 138.847656 242.984375 Z M 138.847656 216.949219 " style=" stroke:none;fill-rule:nonzero;fill:rgb(48.627451%,51.764706%,90.980392%);fill-opacity:1;" />
<path d="M 184.925781 225.628906 L 34.710938 225.628906 C 29.917969 225.628906 26.03125 221.742188 26.03125 216.949219 L 26.03125 155.683594 C 26.035156 150.890625 29.921875 147.007812 34.714844 147.011719 C 37.199219 147.011719 39.566406 148.078125 41.210938 149.9375 C 59.347656 170.464844 85.421875 182.226562 112.8125 182.238281 L 130.167969 182.238281 C 144.324219 182.257812 158.453125 181.148438 172.429688 178.914062 C 174.898438 178.246094 177.535156 178.679688 179.660156 180.101562 C 181.777344 181.542969 183.148438 183.847656 183.40625 186.394531 C 184.296875 195.589844 187.316406 204.457031 192.234375 212.28125 C 194.8125 216.320312 193.625 221.683594 189.585938 224.265625 C 188.195312 225.152344 186.578125 225.625 184.925781 225.628906 Z M 43.390625 208.269531 L 170.902344 208.269531 C 169.597656 204.859375 168.535156 201.359375 167.71875 197.796875 C 161.175781 198.996094 137.058594 199.59375 130.167969 199.59375 L 112.8125 199.59375 C 87.65625 199.585938 63.222656 191.175781 43.390625 175.703125 Z M 43.390625 208.269531 " style=" stroke:none;fill-rule:nonzero;fill:rgb(65.490196%,66.27451%,67.45098%);fill-opacity:1;" />
<path d="M 306.878906 277.140625 L 303.726562 355.796875 L 312.40625 364.472656 L 312.40625 277.695312 C 310.550781 277.65625 308.703125 277.46875 306.878906 277.140625 Z M 306.878906 277.140625 " style=" stroke:none;fill-rule:nonzero;fill:rgb(100%,46.666667%,32.941176%);fill-opacity:1;" />
<path d="M 28.21875 161.410156 C 10.003906 140.820312 -0.0351562 114.269531 0 86.78125 L 0 17.355469 C 0 12.5625 3.886719 8.679688 8.679688 8.679688 L 52.066406 8.679688 L 52.066406 26.035156 L 17.355469 26.035156 L 17.355469 86.78125 C 17.316406 110.039062 25.800781 132.503906 41.203125 149.929688 Z M 28.21875 161.410156 " style=" stroke:none;fill-rule:nonzero;fill:rgb(65.490196%,66.27451%,67.45098%);fill-opacity:1;" />
<path d="M 239.875 121.96875 L 223.023438 117.898438 C 224.769531 107.617188 225.640625 97.207031 225.628906 86.78125 L 225.628906 26.035156 L 182.238281 26.035156 L 182.238281 8.679688 L 234.304688 8.679688 C 239.097656 8.679688 242.984375 12.5625 242.984375 17.355469 L 242.984375 86.78125 C 242.996094 98.578125 241.957031 110.355469 239.875 121.96875 Z M 239.875 121.96875 " style=" stroke:none;fill-rule:nonzero;fill:rgb(65.490196%,66.27451%,67.45098%);fill-opacity:1;" />
<path d="M 60.746094 34.710938 C 70.332031 34.710938 78.101562 26.941406 78.101562 17.355469 C 78.101562 7.769531 70.332031 0 60.746094 0 L 43.390625 0 L 43.390625 34.710938 Z M 60.746094 34.710938 " style=" stroke:none;fill-rule:nonzero;fill:rgb(48.627451%,51.764706%,90.980392%);fill-opacity:1;" />
<path d="M 173.558594 0 C 163.972656 0 156.203125 7.769531 156.203125 17.355469 C 156.203125 26.941406 163.972656 34.710938 173.558594 34.710938 L 190.914062 34.710938 L 190.914062 0 Z M 173.558594 0 " style=" stroke:none;fill-rule:nonzero;fill:rgb(48.627451%,51.764706%,90.980392%);fill-opacity:1;" />
<path d="M 311.277344 166.964844 L 275.613281 131.296875 C 263.832031 119.441406 248.121094 112.3125 231.441406 111.25 C 193.316406 108.40625 160.101562 137.003906 157.257812 175.132812 C 156.953125 179.175781 157.007812 183.238281 157.417969 187.269531 C 158.433594 197.820312 161.910156 207.988281 167.570312 216.949219 C 170.332031 221.488281 173.625 225.683594 177.375 229.445312 L 303.726562 355.796875 L 306.878906 277.140625 C 288.039062 274.089844 275.238281 256.347656 278.285156 237.507812 C 280.828125 221.804688 293.761719 209.863281 309.621094 208.582031 C 310.558594 208.511719 311.453125 208.304688 312.40625 208.304688 L 312.40625 168.09375 Z M 311.277344 166.964844 " style=" stroke:none;fill-rule:nonzero;fill:rgb(100%,46.666667%,32.941176%);fill-opacity:1;" />
<path d="M 447.433594 131.296875 C 420.289062 104.222656 376.347656 104.222656 349.199219 131.296875 L 312.40625 168.09375 L 312.40625 208.269531 C 331.578125 208.269531 347.117188 223.8125 347.117188 242.984375 C 347.117188 262.152344 331.578125 277.695312 312.40625 277.695312 L 312.40625 364.472656 L 447.433594 229.445312 C 474.527344 202.335938 474.527344 158.40625 447.433594 131.296875 Z M 447.433594 131.296875 " style=" stroke:none;fill-rule:nonzero;fill:rgb(100%,57.254902%,46.27451%);fill-opacity:1;" />
<path d="M 303.726562 381.832031 L 303.726562 433.898438 C 303.683594 467.429688 276.511719 494.601562 242.980469 494.644531 L 190.914062 494.644531 C 157.382812 494.601562 130.210938 467.429688 130.167969 433.898438 L 130.167969 242.984375 L 112.8125 242.984375 L 112.8125 433.898438 C 112.859375 477.011719 147.800781 511.953125 190.914062 512 L 242.980469 512 C 286.097656 511.953125 321.035156 477.011719 321.085938 433.898438 L 321.085938 381.832031 Z M 303.726562 381.832031 " style=" stroke:none;fill-rule:nonzero;fill:rgb(65.490196%,66.27451%,67.45098%);fill-opacity:1;" />
<path d="M 303.726562 269.015625 L 321.085938 269.015625 L 321.085938 381.832031 L 303.726562 381.832031 Z M 303.726562 269.015625 " style=" stroke:none;fill-rule:nonzero;fill:rgb(65.490196%,66.27451%,67.45098%);fill-opacity:1;" />
<path d="M 347.117188 242.984375 C 347.117188 223.8125 331.578125 208.269531 312.40625 208.269531 C 293.234375 208.269531 277.695312 223.8125 277.695312 242.984375 C 277.695312 262.152344 293.234375 277.695312 312.40625 277.695312 C 331.578125 277.695312 347.117188 262.152344 347.117188 242.984375 Z M 312.40625 251.660156 C 307.613281 251.660156 303.726562 247.777344 303.726562 242.984375 C 303.726562 238.191406 307.613281 234.304688 312.40625 234.304688 C 317.199219 234.304688 321.085938 238.191406 321.085938 242.984375 C 321.085938 247.777344 317.199219 251.660156 312.40625 251.660156 Z M 312.40625 251.660156 " style=" stroke:none;fill-rule:nonzero;fill:rgb(48.627451%,51.764706%,90.980392%);fill-opacity:1;" />
<path d="M 321.085938 242.984375 C 321.085938 247.777344 317.199219 251.660156 312.40625 251.660156 C 307.613281 251.660156 303.726562 247.777344 303.726562 242.984375 C 303.726562 238.191406 307.613281 234.304688 312.40625 234.304688 C 317.199219 234.304688 321.085938 238.191406 321.085938 242.984375 Z M 321.085938 242.984375 " style=" stroke:none;fill-rule:nonzero;fill:rgb(31.764706%,35.686275%,87.843137%);fill-opacity:1;" />
</g>
</svg>