<svg viewBox="-31 0 512 512" xmlns="http://www.w3.org/2000/svg"><path d="m390 307v70c0 74.398438-60.601562 135-135 135-52.199219 0-97.5-29.699219-120-73.199219-9.601562-18.601562-15-39.601562-15-61.800781v-91h30v91c0 57.898438 47.101562 105 105 105s105-47.101562 105-105v-70zm0 0" fill="#20cee5"/><path d="m390 307v70c0 74.398438-60.601562 135-135 135-52.199219 0-97.5-29.699219-120-73.199219v-152.800781h15v91c0 57.898438 47.101562 105 105 105s105-47.101562 105-105v-70zm0 0" fill="#19b9ce"/><path d="m15 181h240v30h-240zm0 0" fill="#76e2f8"/><path d="m135 181h120v30h-120zm0 0" fill="#20cee5"/><path d="m270 30v173.5l-135 101.101562-135-101.101562v-173.5h75v30h-45v128.5l105 78.898438 105-78.898438v-128.5h-45v-30zm0 0" fill="#ececf1"/><path d="m405 188.5c-11.101562 0-21.898438 4.5-30 12.597656-8.101562-8.101562-18.898438-12.597656-30-12.597656-25.199219 0-45 21-45 47.398438 0 33.300781 33.601562 56.101562 75 91.203124 41.699219-35.402343 75-57.003906 75-91.203124 0-26.398438-19.800781-47.398438-45-47.398438zm0 0" fill="#ff6c6c"/><path d="m375 327.101562v-126c8.101562-8.101562 18.898438-12.601562 30-12.601562 25.199219 0 45 21 45 47.398438 0 34.199218-33.300781 55.800781-75 91.203124zm0 0" fill="#ff4949"/><path d="m270 30v173.5l-135 101.101562v-37.203124l105-78.898438v-128.5h-45v-30zm0 0" fill="#e2e2e7"/><path d="m60 0h30v90h-30zm0 0" fill="#76e2f8"/><path d="m180 0h30v90h-30zm0 0" fill="#20cee5"/></svg>